<svg width="19" height="19" viewBox="0 0 19 19" fill="none" xmlns="http://www.w3.org/2000/svg">
<path d="M9.60449 1.11121C11.1314 1.13658 12.6037 1.704 13.7539 2.71863C14.9808 3.80099 15.7496 5.31046 15.9033 6.93933L15.9248 7.245C15.9944 8.74054 15.5374 10.2146 14.6338 11.4139L17.9678 14.7469L18.0264 14.8114C18.082 14.8791 18.1275 14.9548 18.1611 15.036L18.1904 15.119C18.2158 15.2028 18.2295 15.29 18.2295 15.3778C18.2295 15.4657 18.2158 15.5528 18.1904 15.6366L18.1611 15.7196C18.1163 15.8277 18.0505 15.9259 17.9678 16.0087C17.9057 16.0708 17.835 16.1236 17.7578 16.1649L17.6787 16.202C17.5705 16.2469 17.4541 16.2694 17.3369 16.2694C17.2491 16.2694 17.1619 16.2567 17.0781 16.2313L16.9951 16.202C16.9141 16.1684 16.839 16.1227 16.7715 16.0673L16.7061 16.0087L13.373 12.6747C12.1737 13.5809 10.6983 14.0394 9.20117 13.9706L8.89551 13.9491C7.36727 13.8057 5.94423 13.121 4.87988 12.0243L4.67188 11.7997C3.5888 10.5718 3.01472 8.97713 3.06641 7.3407L3.08301 7.03406C3.20405 5.51056 3.86499 4.07568 4.95117 2.99109L5.17188 2.78015C6.30257 1.75342 7.76561 1.1606 9.29883 1.11316L9.60449 1.11121ZM9.50879 2.91882C8.3587 2.92351 7.2536 3.35335 6.40527 4.12195L6.23926 4.28015C5.37188 5.14755 4.88292 6.32302 4.87793 7.54968C4.873 8.77628 5.35263 9.95557 6.21289 10.83L6.37793 10.9891C6.77222 11.3522 7.22671 11.6448 7.72168 11.8534L7.93555 11.9374C8.43922 12.1209 8.97157 12.2164 9.50879 12.2186L9.73828 12.2137C10.2736 12.1895 10.8013 12.0725 11.2979 11.868C11.8654 11.6343 12.3814 11.2903 12.8154 10.8563C13.2495 10.4223 13.5934 9.90633 13.8271 9.33875L13.9092 9.12488C14.063 8.69178 14.152 8.23831 14.1729 7.77917L14.1777 7.54968C14.1755 7.01248 14.08 6.4801 13.8965 5.97644L13.8125 5.76257C13.6039 5.26759 13.3113 4.81313 12.9482 4.41882L12.7891 4.25378C11.9147 3.3935 10.7354 2.91387 9.50879 2.91882Z" fill="black" stroke="black" stroke-width="0.2"/>
</svg>
