<svg width="20" height="21" viewBox="0 0 20 21" fill="none" xmlns="http://www.w3.org/2000/svg">
<circle cx="10" cy="10.9326" r="9.25" fill="white" stroke="#CACDD8" stroke-width="1.5"/>
<path d="M6.0472 15.6761H6.10254L8.66678 15.4424C8.94767 15.4144 9.21039 15.2907 9.41083 15.0919L14.9452 9.55758C15.16 9.33065 15.276 9.02783 15.268 8.71546C15.2599 8.4031 15.1283 8.10667 14.9021 7.89113L13.2172 6.20624C12.9973 5.99968 12.7092 5.88117 12.4076 5.87323C12.106 5.86529 11.812 5.96849 11.5815 6.1632L6.0472 11.6975C5.84843 11.898 5.72467 12.1607 5.69669 12.4416L5.43227 15.0058C5.42399 15.0959 5.43568 15.1867 5.4665 15.2717C5.49732 15.3567 5.54653 15.4339 5.6106 15.4978C5.66806 15.5547 5.7362 15.5998 5.81112 15.6304C5.88604 15.661 5.96627 15.6766 6.0472 15.6761ZM12.3625 7.06713L14.0412 8.74588L12.8114 9.94498L11.1634 8.29698L12.3625 7.06713ZM6.88964 12.5461L10.3517 9.10869L12.012 10.769L8.56839 14.2126L6.72361 14.3847L6.88964 12.5461Z" fill="#A2A6B0"/>
</svg>
